<?xml version="1.0" standalone="no"?>
<!DOCTYPE svg PUBLIC "-//W3C//DTD SVG 1.1//EN" "http://www.w3.org/Graphics/SVG/1.1/DTD/svg11.dtd" >
<svg>
<metadata>
Created by FontForge 20110222 at Tue Apr  8 06:42:21 2014
 By www-data
(c)2014 Todd Williams
</metadata>
<defs>
<font id="MyFont-Regular" horiz-adv-x="502" >
  <font-face 
    font-family="Journal"
    font-weight="400"
    font-stretch="normal"
    units-per-em="1000"
    panose-1="0 0 5 4 0 0 0 0 0 4"
    ascent="764"
    descent="-236"
    x-height="492"
    cap-height="713"
    bbox="-792 -499 610.209 968.302"
    underline-thickness="53"
    underline-position="-82"
    unicode-range="U+0020-201D"
  />
    <missing-glyph />
    <glyph glyph-name="b" unicode="b" horiz-adv-x="452" 
d="M0 -1c215 0 284 22 355 119s77 371 -57 371s-203 -180 -203 -180s-8 609 5 629s19 9 11 21s-111 -13 -111 -13s-1 -481 0 -947zM96 247v-214c134 25 165 119 186 183s32 166 -26 203s-160 -172 -160 -172z" />
    <glyph glyph-name="e" unicode="e" horiz-adv-x="460" 
d="M198 499c166 23 171 -20 196 -41c6 -19 29 -53 11 -109c0 0 -241 -219 -252 -252c49 -66 101 -45 101 -45s43 -6 146 97c16 -2 0 -56 0 -56c-106 -169 -274 -80 -287 -74c0 0 -111 57 -111 220s81 244 196 260zM109 289c0 0 0 -153 19 -153s180 169 184 221
s-36 107 -110 95s-93 -163 -93 -163z" />
    <glyph glyph-name="c" unicode="c" horiz-adv-x="445" 
d="M368 427c0 -2 -56 45 -127 16c-59 -29 -164 -242 -119 -321s111 -112 227 -75c56 47 10 28 60 32c-6 -14 -34 -72 -111 -87s-279 25 -292 188s141 328 244 326s127 -58 127 -58s-9 -19 -9 -21z" />
    <glyph glyph-name="f" unicode="f" horiz-adv-x="322" 
d="M552 861c10 -14 -29 -13 -29 -13s-109 52 -214 35s-169 -93 -169 -93l12 -291h150v-29h-147l35 -868l-130 25l-8 843h-95v27h97s-13 314 -13 333s168 90 246 95s229 -15 265 -64z" />
    <glyph glyph-name="a" unicode="a" horiz-adv-x="448" 
d="M51 421l22 -17s117 45 148 48c98 9 74 -56 68 -134c-285 10 -324 -166 -322 -186c-2 -60 101 -144 177 -140c116 -2 145 159 145 159v-151h103v462s-12 43 -124 39s-217 -80 -217 -80zM289 287c0 0 -4 -219 -140 -217c-30 0 -76 23 -66 66c64 182 206 151 206 151z" />
    <glyph glyph-name="d" unicode="d" horiz-adv-x="479" 
d="M-253 763c0 0 9 -32 57 -3c135 82 162 78 235 75c58 -2 115 -23 169 -68c67 -56 78 -108 85 -131c23 -74 10 -201 10 -201c-27 64 -102 72 -146 66s-154 -35 -165 -201c-4 -58 20 -168 44 -204c28 -42 115 -127 234 -104c93 18 146 176 147 297c0 97 -11 234 -19 281
c-8 42 -26 152 -76 200c-106 102 -172 108 -259 111s-135 -16 -168 -27s-148 -91 -148 -91zM201 31c61 3 92 140 86 217c4 64 -33 230 -112 208c-64 -18 -68 -142 -64 -210c4 -61 29 -218 90 -215z" />
    <glyph glyph-name="h" unicode="h" horiz-adv-x="497" 
d="M0 903v-903h101s-2 95 2 173s169 271 196 236s4 -409 4 -409h106s2 371 0 409c-1 12 -5 72 -52 78c-107 14 -258 -184 -258 -184s-2 600 0 617s21 29 21 29s19 12 -16 15s-104 -61 -104 -61z" />
    <glyph glyph-name="i" unicode="i" horiz-adv-x="221" 
d="M29 462c0 0 -2 -451 2 -460s126 -8 132 -8s15 8 15 8s-46 27 -48 35s0 444 0 446s33 10 6 18s-107 -39 -107 -39zM50 565c25 -2 39 15 51 23s34 54 34 69s7 43 -32 51s-68 -49 -75 -66s-3 -75 22 -77z" />
    <glyph glyph-name="j" unicode="j" horiz-adv-x="285" 
d="M91 464l-1 -622s8 -100 -48 -175c-17 -22 -33 -25 -66 -52c64 0 223 126 215 223c0 0 1 645 1 647s33 10 6 18s-107 -39 -107 -39zM112 567c25 -2 39 15 51 23s32 52 32 67s9 45 -30 53s-68 -53 -75 -70s-3 -71 22 -73z" />
    <glyph glyph-name="l" unicode="l" horiz-adv-x="219" 
d="M0 916v-916s92 -26 149 -24c0 0 31 7 -3 15s-46 59 -46 59l-1 893s29 18 2 18c-35 0 -101 -45 -101 -45z" />
    <glyph glyph-name="m" unicode="m" horiz-adv-x="617" 
d="M0 480v-480h99s-1 180 0 182c33 74 100 265 127 226c5 -71 3 -408 3 -408h103s1 151 0 211c10 61 107 266 122 192c2 -94 1 -403 1 -403h96v403s-12 76 -81 90s-156 -230 -156 -230s16 228 -66 228s-154 -222 -154 -222l3 216s29 12 10 16s-107 -21 -107 -21z" />
    <glyph glyph-name="n" unicode="n" horiz-adv-x="450" 
d="M2 497v-497h97l2 154s114 335 190 249c20 -8 8 -403 8 -403h97c-1 267 10 478 -94 490c-124 14 -203 -229 -203 -229v236h-97z" />
    <glyph glyph-name="o" unicode="o" horiz-adv-x="454" 
d="M200 505c-111 0 -201 -116 -201 -259s90 -259 201 -259s202 116 202 259s-91 259 -202 259zM199 471c-57 0 -91 -120 -91 -238s34 -216 91 -216s86 101 86 219s-29 235 -86 235z" />
    <glyph glyph-name="p" unicode="p" 
d="M0 480v-881h101v467s19 -97 196 -74c71 9 145 121 145 287c0 38 9 243 -204 215c-104 -14 -137 -223 -137 -223v218l15 1s-2 10 -19 12s-97 -22 -97 -22zM149 198c0 -160 38 -172 56 -167c103 28 122 230 123 268c3 104 -8 150 -44 155c-106 15 -135 -213 -135 -256z" />
    <glyph glyph-name="r" unicode="r" horiz-adv-x="402" 
d="M0 480v-480h101v114s10 279 109 305c71 19 129 -93 129 -93l45 109s-33 79 -186 54c-103 -17 -97 -190 -97 -190v190l15 1s-2 10 -19 12s-97 -22 -97 -22z" />
    <glyph glyph-name="u" unicode="u" horiz-adv-x="458" 
d="M401 0l-2 487s18 0 14 8c-5 10 -23 3 -23 3l-88 -9v-158s-119 -340 -195 -254c-20 8 -8 416 -8 416h-97c1 -267 -10 -491 94 -503c124 -14 208 229 208 229v-219h97z" />
    <glyph glyph-name="k" unicode="k" horiz-adv-x="451" 
d="M0 931v-931h101s1 246 0 246s192 -246 192 -246s57 -20 116 0c15 3 -20 16 -20 16l-289 302s108 -85 193 -57s91 121 84 154s-39 83 -113 89s-163 -95 -163 -95v531s28 17 18 22s-119 -31 -119 -31zM102 355c0 0 43 -38 83 -45s69 17 84 45s13 71 -33 84
s-134 -84 -134 -84z" />
    <glyph glyph-name="g" unicode="g" horiz-adv-x="500" 
d="M330 465v27s95 11 111 12s15 -9 14 -10s-16 -9 -16 -20v-474c-16 0 -119 86 -210 79c-133 -10 -121 -112 -121 -144c0 -34 29 -136 113 -136s176 82 176 82l21 -8s-86 -97 -197 -114s-224 101 -221 183s99 147 167 165s165 -6 165 -6v229c-51 -129 -163 -164 -225 -169
s-114 121 -112 215s112 126 191 123s144 -34 144 -34zM194 462c52 0 69 -14 77 -22c31 -31 24 -63 23 -90s-35 -108 -141 -131c-47 -10 -60 113 -61 132c-5 98 47 111 102 111z" />
    <glyph glyph-name="q" unicode="q" horiz-adv-x="524" 
d="M427 503c0 0 29 5 33 -6s-10 -12 -10 -12v-886h-101v467s-19 -97 -196 -74c-71 9 -145 121 -145 287c0 38 -9 243 204 215c104 -14 137 -223 137 -223v218zM301 198c0 -160 -44 -156 -62 -151c-103 28 -116 214 -117 252c-3 104 8 150 44 155c106 15 135 -213 135 -256z
" />
    <glyph glyph-name="t" unicode="t" horiz-adv-x="281" 
d="M29 935v-436h-66s0 -35 0 -35h66s-8 -415 12 -435c54 -56 163 -39 163 -39s45 22 -2 25s-54 24 -66 72v377h138v35h-138v446l14 10s-2 9 -14 13s-107 -33 -107 -33z" />
    <glyph glyph-name="space" unicode=" " horiz-adv-x="250" 
 />
    <glyph glyph-name="w" unicode="w" horiz-adv-x="559" 
d="M0 475l105 -475h89l56 250l80 -250h85l107 470s19 0 13 13s-50 18 -50 18l-85 -361l-128 324l-88 -332s-89 357 -91 355s14 4 14 4l-6 12z" />
    <glyph glyph-name="x" unicode="x" horiz-adv-x="462" 
d="M-45 400l21 -10c20 31 45 31 45 31l118 -165l-143 -256h76l106 204l115 -204h128l-192 297l95 173l-40 33l-90 -163s-102 157 -109 161s-130 -101 -130 -101z" />
    <glyph glyph-name="v" unicode="v" horiz-adv-x="406" 
d="M-4 468l122 -468h101s132 167 136 287s-16 196 -37 231c-55 92 -82 111 -82 111s64 -127 66 -249s-120 -254 -120 -254l-89 369z" />
    <glyph glyph-name="z" unicode="z" horiz-adv-x="420" 
d="M-52 399l33 -16s46 36 70 47c181 80 141 -88 86 -159c-27 -35 -130 -113 -130 -113l14 -33s108 44 180 23c202 -58 -188 -636 -188 -636l25 -3c312 397 425 563 307 703c-42 50 -256 -33 -256 -33s217 109 221 187s-71 128 -177 126s-185 -93 -185 -93z" />
    <glyph glyph-name="y" unicode="y" horiz-adv-x="489" 
d="M0 470c0 0 -2 -387 2 -420s90 -60 101 -48c43 50 145 109 182 229c0 0 2 -685 0 -699s-13 -31 -13 -31s72 5 89 24s19 15 31 50c0 0 -4 904 2 916s2 19 2 19l-122 -17s7 -56 0 -124c-20 -198 -173 -274 -173 -274s-4 384 2 386s2 20 2 20z" />
    <glyph glyph-name="s" unicode="s" horiz-adv-x="462" 
d="M347 454l2 18s-8 6 -41 15c-36 10 -180 27 -265 -43c-51 -42 -41 -95 -39 -114c6 -58 93 -138 163 -109s81 39 97 27c26 -19 28 -43 35 -87s-39 -123 -97 -126c-39 -2 -142 4 -188 87l-16 -9c39 -99 175 -121 198 -121c136 0 200 82 215 132s-6 141 -33 155
c-49 25 -84 27 -169 6s-85 62 -85 101s23 70 66 82c27 7 46 11 93 0c60 -14 64 -14 64 -14z" />
    <glyph glyph-name="period" unicode="." horiz-adv-x="300" 
d="M50 102c-28 0 -52 -23 -52 -51s24 -51 52 -51s51 23 51 51s-23 51 -51 51z" />
    <glyph glyph-name="comma" unicode="," horiz-adv-x="147" 
d="M54 89c-28 0 -52 -23 -52 -51s65 -43 4 -115c-19 -22 97 33 99 115c1 28 -23 51 -51 51z" />
    <glyph glyph-name="quotedbl" unicode="&#x22;" horiz-adv-x="272" 
d="M53 706c-28 0 -52 -23 -52 -51s65 -43 4 -115c-19 -22 97 33 99 115c1 28 -23 51 -51 51zM184 706c-28 0 -52 -23 -52 -51s65 -43 4 -115c-19 -22 97 33 99 115c1 28 -23 51 -51 51z" />
    <glyph glyph-name="quoteright" unicode="'" horiz-adv-x="150" 
d="M54 706c-28 0 -52 -23 -52 -51s65 -43 4 -115c-19 -22 97 33 99 115c1 28 -23 51 -51 51z" />
    <glyph glyph-name="hyphen" unicode="-" horiz-adv-x="251" 
d="M0 401v-33h198v33h-198z" />
    <glyph glyph-name="O" unicode="O" horiz-adv-x="539" 
d="M251 735c-138 0 -251 -167 -251 -373s113 -375 251 -375s249 169 249 375s-111 373 -249 373zM253 715c-82 0 -143 -207 -143 -355s61 -350 143 -350s136 202 136 350s-54 355 -136 355z" />
    <glyph glyph-name="P" unicode="P" horiz-adv-x="437" 
d="M-2 702l2 -804h99l2 559s39 -157 152 -157s133 148 137 207c-2 45 11 163 -101 200s-188 -37 -188 -37s-7 32 -2 32s10 6 13 11s-114 -11 -114 -11zM191 683c-48 0 -80 -28 -85 -110s51 -212 99 -212s79 124 79 176s-45 146 -93 146z" />
    <glyph glyph-name="A" unicode="A" horiz-adv-x="530" 
d="M-2 0h99l42 145h267l40 -145h56s-212 671 -190 704c12 19 6 26 6 26l-117 -29zM149 178h247l-125 462z" />
    <glyph glyph-name="B" unicode="B" horiz-adv-x="551" 
d="M0 700v-700h101v35s49 -56 153 -58c190 -4 249 168 249 292s-163 178 -208 181s-46 1 -46 1s8 4 33 10c109 27 99 124 78 178s-126 71 -165 71s-94 -23 -94 -23v13s11 6 11 13s-112 -13 -112 -13zM100 654v-183s76 5 108 15s63 45 61 100s-43 74 -81 84s-88 -16 -88 -16z
M100 410c0 0 -1 -321 0 -321s26 -51 155 -57s132 137 131 199s-33 136 -77 167s-209 12 -209 12z" />
    <glyph glyph-name="C" unicode="C" horiz-adv-x="467" 
d="M392 620c0 0 -13 -20 -32 -5s-43 33 -85 48c-38 14 -83 -11 -109 -41c-50 -58 -60 -159 -60 -210s11 -202 43 -280c23 -55 94 -82 132 -80c92 4 135 110 135 110l26 11c-4 -59 -71 -175 -145 -184c-106 -13 -169 37 -217 93c-34 40 -74 125 -79 240c2 146 -3 211 57 310
s128 114 208 81c65 -25 77 -38 126 -93z" />
    <glyph glyph-name="D" unicode="D" horiz-adv-x="530" 
d="M0 698v-698h101v53s34 -66 98 -68c109 -3 165 40 208 130c52 108 55 295 53 383c-3 124 -56 169 -75 189c-25 27 -98 54 -165 31s-119 -100 -119 -100v80s9 5 8 13c0 3 -109 -13 -109 -13zM101 549v-430s23 -50 54 -70c59 -38 93 -20 131 29c53 68 72 203 80 263
c17 129 -3 207 -34 258s-69 61 -113 57s-118 -107 -118 -107z" />
    <glyph glyph-name="E" unicode="E" horiz-adv-x="426" 
d="M0 700v-700h401s-6 92 -11 99s-289 -3 -289 -3l-2 350h172v45l-173 -2v111s274 -8 277 3s2 71 2 71l-279 -10v31c12 8 15 13 13 15c-6 5 -111 -10 -111 -10z" />
    <glyph glyph-name="F" unicode="F" horiz-adv-x="413" 
d="M0 700v-700h101v222h158s1 34 1 34h-161l-2 343s301 -7 304 4s1 73 1 73l-302 -1v19c9 6 14 14 11 16c-6 5 -111 -10 -111 -10z" />
    <glyph glyph-name="G" unicode="G" horiz-adv-x="523" 
d="M422 657l-23 -9c-13 12 -49 35 -120 30c-46 -3 -101 -37 -128 -68c-58 -67 -47 -447 18 -542c32 -47 154 -55 169 -38c96 109 31 308 28 377h-127s-1 54 -1 55s242 0 242 0c2 -103 33 -190 -42 -400c-29 -81 -148 -91 -274 -64c-54 12 -166 98 -169 307s21 273 47 316
c29 48 110 96 206 99s134 -22 174 -63z" />
    <glyph glyph-name="H" unicode="H" horiz-adv-x="539" 
d="M0 700v-700h99v182h267v-182h102v697s10 6 10 14s-111 -10 -111 -10v-481h-266v480h-101z" />
    <glyph glyph-name="I" unicode="I" horiz-adv-x="157" 
d="M0 700v-700h99v700s17 8 10 13s-109 -13 -109 -13z" />
    <glyph glyph-name="J" unicode="J" horiz-adv-x="267" 
d="M69 700c0 0 2 -652 0 -702c-5 -118 -78 -149 -100 -173c-19 -20 -73 -60 -47 -58c251 23 263 207 265 235s0 698 0 698s14 8 8 13s-126 -13 -126 -13z" />
    <glyph glyph-name="K" unicode="K" horiz-adv-x="424" 
d="M0 700v-700h101v284s169 -283 169 -284s137 0 137 0l-244 393l203 316s19 3 9 10s-76 -8 -76 -8l-198 -302v291h-101z" />
    <glyph glyph-name="L" unicode="L" horiz-adv-x="371" 
d="M0 700v-700h348s1 61 0 67s-22 -13 -22 -13h-225v643s13 8 13 13s-114 -10 -114 -10z" />
    <glyph glyph-name="M" unicode="M" horiz-adv-x="550" 
d="M0 702v-702h102v619l147 -187l150 192v-624h101v698s13 15 10 17s-109 -15 -112 -15s-150 -197 -150 -197l-147 199h-101z" />
    <glyph glyph-name="N" unicode="N" 
d="M0 0h102v601l246 -601h103v697s21 13 16 16s-122 -15 -122 -15v-601l-246 603h-99v-700z" />
    <glyph glyph-name="Q" unicode="Q" horiz-adv-x="548" 
d="M251 713c-138 0 -251 -167 -251 -373s113 -375 251 -375s249 169 249 375s-111 373 -249 373zM253 693c-82 0 -140 -206 -140 -354s58 -351 140 -351s134 202 134 350s-52 355 -134 355zM320 -20c0 0 45 -46 74 -59s75 -17 119 20c0 0 -25 4 -46 9c-54 12 -74 83 -74 83
c-18 -25 -73 -53 -73 -53z" />
    <glyph glyph-name="R" unicode="R" horiz-adv-x="428" 
d="M0 702v-702h101v411s55 8 86 -8s92 -73 95 -142c2 -51 2 -259 2 -259s147 -85 149 -85s0 11 -25 41s-18 196 -33 318s-190 155 -190 155s72 7 97 13c109 27 95 151 78 195s-126 71 -165 71s-94 -23 -94 -23v13s11 6 11 13s-112 -11 -112 -11zM102 655c0 0 2 -199 2 -201
s69 11 104 15s63 62 61 117s-43 74 -81 84s-86 -15 -86 -15z" />
    <glyph glyph-name="T" unicode="T" horiz-adv-x="318" 
d="M-80 700v-40h139v-660h105l-1 658h257v39s22 10 7 13s-507 -10 -507 -10z" />
    <glyph glyph-name="U" unicode="U" horiz-adv-x="492" 
d="M0 700v-497c0 -95 86 -163 110 -179c35 -23 93 -32 126 -32s68 1 109 22s93 85 93 187l1 494s16 11 15 16s-114 -9 -114 -9v-481c-1 -101 -19 -153 -50 -171s-65 -14 -95 -6s-94 26 -94 177v479h-101z" />
    <glyph glyph-name="V" unicode="V" 
d="M-2 698l200 -698h101l180 700s13 6 11 11s-61 -9 -61 -9l-153 -601l-178 597h-100z" />
    <glyph glyph-name="W" unicode="W" horiz-adv-x="655" 
d="M278 451l-89 -349l-88 598h-101l108 -700h103l94 355l114 -355h101l79 701s13 6 11 11s-61 -9 -61 -9l-63 -600l-108 348h-100z" />
    <glyph glyph-name="X" unicode="X" 
d="M0 599l172 -290l-172 -309h46l148 272l189 -373h119l-239 451l180 370s16 8 11 15s-51 -15 -51 -15l-165 -328l-109 207h-129z" />
    <glyph glyph-name="Y" unicode="Y" horiz-adv-x="459" 
d="M0 492c0 0 -2 -492 2 -492s80 -13 111 -9c43 6 77 40 115 87c33 41 72 153 74 194v-513s103 -4 103 109l-3 825s19 7 17 15s-119 -17 -119 -17v-299c0 -47 -35 -160 -57 -204c-77 -154 -142 -153 -142 -153v457h-101z" />
    <glyph glyph-name="Z" unicode="Z" horiz-adv-x="574" 
d="M33 697v-41h402l-435 -598l2 -58h501s22 118 15 128s-22 -12 -22 -12l-395 -1l411 582h-479z" />
    <glyph glyph-name="S" unicode="S" horiz-adv-x="563" 
d="M393 620l44 4s-81 59 -114 68c-36 10 -147 32 -219 -14c-32 -20 -88 -54 -86 -159c1 -57 75 -129 123 -141s118 14 157 22c127 26 114 -230 109 -244c-29 -78 -56 -133 -150 -136c-39 -1 -114 49 -143 171l-116 -47c39 -99 118 -163 254 -161c165 2 261 100 263 220
c1 66 -2 139 -47 204c-32 47 -120 47 -205 26s-123 64 -123 103s30 75 51 96c20 20 70 38 117 27c60 -14 85 -39 85 -39z" />
    <glyph glyph-name="exclam" unicode="!" horiz-adv-x="149" 
d="M0 697v-461c42 -68 99 -62 99 -62l-1 512s3 12 1 14s17 -2 14 12s-113 -15 -113 -15zM51 102c-27 0 -49 -23 -49 -51s22 -49 49 -49s50 21 50 49s-23 51 -50 51z" />
    <glyph glyph-name="numbersign" unicode="#" horiz-adv-x="540" 
d="M68 300h90l-63 -120h-95v-31h80l-80 -149h98l70 144h87l-66 -144s97 0 96 0s65 143 65 143h99l1 33h-83l47 121h76v23h-67l74 138l15 16s25 5 16 14s-112 -15 -112 -15l-77 -150h-79l48 97h-85s-48 -90 -47 -90s-108 0 -108 0v-30zM242 297l-62 -118h93l59 118h-90z" />
    <glyph glyph-name="dollar" unicode="$" horiz-adv-x="560" 
d="M393 620l44 4s-81 59 -114 68c-13 4 -35 10 -63 12c-2 0 -4 72 0 111c3 11 16 21 16 21c-38 10 -80 -19 -100 -21c-3 0 13 -110 10 -110c-29 -3 -58 -11 -82 -27c-32 -20 -88 -54 -86 -159c1 -57 75 -129 123 -141c24 -6 43 -7 72 -1c5 1 82 22 85 23
c127 26 114 -230 109 -244c-29 -78 -56 -133 -150 -136c-39 -1 -114 49 -143 171l-116 -47c34 -86 115 -151 220 -164c17 -2 13 -105 13 -105c25 0 95 3 95 3c9 9 -8 106 -3 107c111 30 190 121 192 218c1 66 -2 139 -47 204c-29 42 -103 46 -178 32c-9 -2 -50 -10 -60 -9
c-62 5 -90 73 -90 106c0 39 30 75 51 96c20 20 70 38 117 27c60 -14 85 -39 85 -39z" />
    <glyph glyph-name="percent" unicode="%" horiz-adv-x="378" 
d="M2 0h55l296 492h-54zM288 172c-37 0 -66 -31 -66 -69s29 -69 66 -69s67 31 67 69s-30 69 -67 69zM289 163c-15 0 -27 -27 -27 -60s12 -60 27 -60s26 27 26 60s-11 60 -26 60zM77 452c-37 0 -66 -31 -66 -69s29 -69 66 -69s67 31 67 69s-30 69 -67 69zM78 443
c-15 0 -27 -27 -27 -60s12 -60 27 -60s26 27 26 60s-11 60 -26 60z" />
    <glyph glyph-name="ampersand" unicode="&#x26;" horiz-adv-x="630" 
d="M475 0h52l-34 68s78 52 85 191c3 67 -43 132 -137 113c-33 -7 -79 -51 -79 -51l17 -28s64 64 94 20c38 -56 -15 -157 -15 -157l-169 292s162 88 77 191s-263 38 -263 38l132 -210c-89 -22 -237 -84 -237 -223s90 -267 261 -267s203 53 203 53zM274 489
c0 0 -60 87 -107 166c0 0 94 -14 122 -66s-15 -100 -15 -100zM248 437l90 -148s-98 -103 -117 -163c-5 -16 33 -50 38 -32c9 34 92 165 92 165l82 -148c-77 -90 -106 -101 -170 -102c-87 -2 -160 110 -154 226c11 217 139 202 139 202z" />
    <glyph glyph-name="quotedblright" unicode="&#x201d;" horiz-adv-x="300" 
d="M52 708c-28 0 -52 -23 -52 -51s65 -43 4 -115c-19 -22 97 33 99 115c1 28 -23 51 -51 51zM187 706c-28 0 -52 -23 -52 -51s65 -43 4 -115c-19 -22 97 33 99 115c1 28 -23 51 -51 51z" />
    <glyph glyph-name="quotedblleft" unicode="&#x201c;" horiz-adv-x="300" 
d="M188 534c28 0 52 23 52 51s-65 43 -4 115c19 22 -97 -33 -99 -115c-1 -28 23 -51 51 -51zM53 536c28 0 52 23 52 51s-65 43 -4 115c19 22 -97 -33 -99 -115c-1 -28 23 -51 51 -51z" />
    <glyph glyph-name="quoteleft" unicode="&#x2018;" horiz-adv-x="171" 
d="M51 540c28 0 52 23 52 51s-22 90 -4 115c17 24 -97 -33 -99 -115c-1 -28 23 -51 51 -51z" />
    <glyph glyph-name="quoteright" unicode="&#x2019;" horiz-adv-x="178" 
d="M56 706c-28 0 -52 -23 -52 -51s22 -90 4 -115c-17 -24 97 33 99 115c1 28 -23 51 -51 51z" />
    <glyph glyph-name="parenleft" unicode="(" horiz-adv-x="259" 
d="M158 707l11 -20s-83 -162 -83 -317s90 -469 90 -469h-20s-156 311 -156 478s158 328 158 328z" />
    <glyph glyph-name="parenright" unicode=")" horiz-adv-x="298" 
d="M54 707l-11 -20s83 -162 83 -317s-90 -469 -90 -469h20s156 311 156 478s-158 328 -158 328z" />
    <glyph glyph-name="asterisk" unicode="*" horiz-adv-x="306" 
d="M135 578c0 0 -53 38 -65 44s-46 -15 -46 -15s10 -29 31 -40s78 2 78 2s-45 -33 -62 -36s0 -54 0 -54s45 -2 51 11s19 72 19 72s16 -56 24 -72s47 -13 47 -13s11 24 8 39s-75 53 -75 53s73 -7 84 -2s30 41 30 41s-34 20 -47 15s-66 -45 -66 -45s25 68 25 83s-26 34 -32 36
s-26 -23 -28 -36s24 -83 24 -83z" />
    <glyph glyph-name="plus" unicode="+" horiz-adv-x="403" 
d="M133 597c-6 -2 7 -156 7 -156s-135 -1 -138 -1s-1 -40 -1 -40l143 -2s6 -208 8 -212s91 -7 99 2s-16 210 -16 210l138 13s7 38 -4 38s-144 -15 -142 -4s6 156 -9 163s-79 -9 -85 -11z" />
    <glyph glyph-name="slash" unicode="/" horiz-adv-x="400" 
d="M-34 0h66l383 709h-66z" />
    <glyph glyph-name="zero" unicode="0" horiz-adv-x="554" 
d="M253 713c-138 0 -253 -138 -253 -344c0 -121 63 -248 124 -317c6 -7 -16 -54 -16 -54l23 -18c2 -1 16 50 19 49c15 -13 76 -35 101 -35c138 0 251 169 249 375c-1 137 -78 250 -132 299c-2 5 11 41 11 41h-35s-2 -23 -6 -20c-32 23 -46 24 -85 24zM257 689
c-111 -11 -147 -174 -147 -322c0 -77 17 -168 44 -238c2 -6 168 523 171 518c13 -9 14 -26 20 -37c3 -7 -171 -520 -167 -525c18 -26 52 -68 75 -68c82 0 136 202 136 350c0 64 -21 333 -132 322z" />
    <glyph glyph-name="one" unicode="1" horiz-adv-x="293" 
d="M24 490c5 -5 87 13 87 13v-503h99v709h-98c0 -49 -101 -201 -101 -201s8 -13 13 -18z" />
    <glyph glyph-name="two" unicode="2" horiz-adv-x="403" 
d="M0 587c17 -60 98 -114 101 -82c9 95 55 184 98 182c77 -4 77 -86 75 -118c-2 -37 9 -96 -69 -156c-176 -135 -177 -83 -196 -175s0 -238 0 -238h348v56h-229s-23 25 -13 143c15 173 258 229 262 364c3 101 -47 146 -172 146s-205 -122 -205 -122z" />
    <glyph glyph-name="three" unicode="3" horiz-adv-x="565" 
d="M116 550c7 -4 28 99 102 118c9 2 61 -8 80 -68s-105 -154 -108 -163s7 -35 11 -39s96 34 125 34s66 -40 66 -128c0 -128 -96 -299 -141 -300s-110 129 -133 146s-80 -90 -71 -96s124 -118 223 -90s237 195 248 306s-70 195 -120 203s-96 -10 -96 -10s100 15 100 128
s-128 119 -190 113c-86 -8 -122 -122 -129 -137s26 -13 33 -17z" />
    <glyph glyph-name="four" unicode="4" horiz-adv-x="447" 
d="M251 709c5 2 94 0 94 0l2 -405l64 2s-2 -53 -14 -51s-50 2 -50 2v-257h-98v259h-219c-22 17 -9 45 -9 45c171 87 225 403 230 405zM247 304h-116c54 62 119 311 119 311z" />
    <glyph glyph-name="five" unicode="5" horiz-adv-x="501" 
d="M356 661c-2 -4 -215 -1 -219 -8s-19 -197 -6 -193c94 29 216 -4 218 -4s109 -36 107 -244s-222 -231 -231 -231s-124 2 -172 68c-49 67 -44 147 -40 150s101 2 101 2c26 -152 61 -184 109 -182c109 4 96 134 96 208s-14 175 -57 199c-16 9 -166 -9 -198 -26
s-42 306 -42 306s332 3 336 1s0 -42 -2 -46z" />
    <glyph glyph-name="six" unicode="6" horiz-adv-x="559" 
d="M533 627c-4 -2 -76 55 -145 51c-120 -7 -185 -68 -187 -70c-71 -58 -91 -184 -94 -219c-8 -107 17 -188 17 -188c0 60 47 145 111 183c51 30 148 17 178 -7c79 -63 102 -128 101 -178c-2 -101 -30 -137 -84 -182c-51 -43 -118 -40 -160 -40c-33 0 -103 27 -159 79
s-89 128 -102 179s-18 170 14 266c16 49 31 85 119 151c60 45 124 60 248 63c78 2 146 -65 154 -69s-7 -17 -11 -19zM312 356c-47 0 -94 -69 -94 -169s47 -155 94 -155s97 63 97 163s-50 161 -97 161z" />
    <glyph glyph-name="seven" unicode="7" horiz-adv-x="448" 
d="M17 597c0 -9 45 -8 45 -8l26 51l205 13v-79c-86 -43 -143 -154 -166 -197c-60 -111 -90 -377 -90 -377h132c-4 169 1 302 24 343c27 47 60 174 195 181c0 0 1 183 0 183s-343 2 -349 0s-5 -37 -13 -71s-9 -30 -9 -39z" />
    <glyph glyph-name="eight" unicode="8" horiz-adv-x="448" 
d="M64 593c0 -85 102 -135 102 -137s-159 -56 -165 -204c-4 -95 54 -275 205 -273c133 2 197 98 195 271c-1 127 -167 206 -167 206s100 55 100 141c0 56 -62 114 -137 114c-72 0 -133 -70 -133 -118zM201 432c-22 0 -87 -80 -87 -196s68 -217 90 -217s89 94 89 210
s-70 203 -92 203zM201 677c-15 0 -34 -18 -34 -82s21 -103 36 -103s32 39 32 103s-19 82 -34 82z" />
    <glyph glyph-name="nine" unicode="9" horiz-adv-x="567" 
d="M210 2c68 4 128 54 130 56c77 88 77 222 80 257c8 107 -39 193 -39 193c7 -48 -38 -152 -102 -190c-51 -30 -148 -17 -178 7c-79 63 -102 128 -101 178c2 101 30 137 84 182c51 43 118 40 160 40c33 0 103 -27 159 -79s89 -128 102 -179s20 -174 -12 -270
c-18 -47 -30 -90 -118 -156c-60 -45 -115 -62 -193 -62zM202 346c47 0 94 69 94 169s-47 155 -94 155s-97 -63 -97 -163s50 -161 97 -161z" />
    <glyph glyph-name="colon" unicode=":" horiz-adv-x="203" 
d="M94 503c-27 0 -49 -22 -49 -49s22 -50 49 -50s50 23 50 50s-23 49 -50 49zM99 251c-27 0 -48 -23 -48 -51s21 -50 48 -50s49 22 49 50s-22 51 -49 51z" />
    <glyph glyph-name="semicolon" unicode=";" horiz-adv-x="203" 
d="M99 497c-27 0 -48 -23 -48 -51s21 -50 48 -50s49 22 49 50s-22 51 -49 51zM98 259c-28 0 -52 -23 -52 -51s65 -43 4 -115c-19 -22 97 33 99 115c1 28 -23 51 -51 51z" />
    <glyph glyph-name="less" unicode="&#x3c;" horiz-adv-x="422" 
d="M2 302c2 2 351 201 356 195s0 -82 0 -86s-328 -133 -328 -133l334 -190s0 -71 -7 -82s-357 251 -357 251s0 43 2 45z" />
    <glyph glyph-name="greater" unicode="&#x3e;" horiz-adv-x="428" 
d="M362 302c-2 2 -351 201 -356 195s0 -82 0 -86s328 -133 328 -133l-334 -190s0 -71 7 -82s357 251 357 251s0 43 -2 45z" />
    <glyph glyph-name="equal" unicode="=" horiz-adv-x="433" 
d="M30 335v-55h357v55h-357zM30 480v-78h357v78h-357z" />
    <glyph glyph-name="question" unicode="?" horiz-adv-x="417" 
d="M-4 570c17 -60 102 -97 105 -65c9 95 55 184 98 182c77 -4 77 -86 75 -118c-2 -37 9 -96 -69 -156c-176 -135 -132 -235 -132 -235s82 26 109 17c0 0 -4 38 2 68c15 173 189 165 193 300c3 101 -47 146 -172 146s-209 -139 -209 -139zM135 114c-31 0 -56 -25 -56 -56
s25 -56 56 -56s55 25 55 56s-24 56 -55 56zM-454 820v0v0v0v0z" />
    <glyph glyph-name="at" unicode="@" horiz-adv-x="605" 
d="M51 421l22 -17s117 45 148 48c98 9 74 -56 68 -134c-285 10 -297 -118 -295 -138c-2 -60 65 -190 141 -186c116 -2 154 157 154 157v-151h103v462s-12 43 -124 39s-217 -80 -217 -80zM289 287c0 0 -4 -219 -140 -217c-30 0 -76 23 -66 66c64 182 206 151 206 151z
M-792 13v0v0v0v0zM220 565c-166 0 -301 -148 -301 -330s135 -329 301 -329s300 147 300 329s-134 330 -300 330zM221 542c-141 0 -234 -138 -234 -307s120 -287 261 -280c149 7 200 49 202 281c2 209 -88 306 -229 306z" />
  </font>
</defs>
</svg>
